<svg xmlns="http://www.w3.org/2000/svg" viewBox="0 0 680 445" width="680" height="445">
  <style>
    text { font-family: 'JetBrains Mono', 'Courier New', monospace; }
  </style>

  <!-- background + titlebar -->
  <rect width="680" height="445" fill="#0c0c0c" rx="6"/>
  <rect width="680" height="32" fill="#111" rx="6"/>
  <rect y="20" width="680" height="12" fill="#111"/>
  <line x1="0" y1="32" x2="680" y2="32" stroke="#1f1f1f" stroke-width="1"/>
  <circle cx="18" cy="16" r="5" fill="#ff5f57"/>
  <circle cx="34" cy="16" r="5" fill="#febc2e"/>
  <circle cx="50" cy="16" r="5" fill="#28c840"/>
  <text x="340" y="21" fill="#555" font-size="11" text-anchor="middle" letter-spacing="0.5">ARS — bash</text>

  <!-- whoami -->
  <text x="20" y="62" font-size="14.5"><tspan fill="#00f5d4">arnab</tspan><tspan fill="#555">@</tspan><tspan fill="#c8ff57">localhost</tspan><tspan fill="#555">:</tspan><tspan fill="#3d9eff">~</tspan><tspan fill="#c8ff57"> $ </tspan><tspan fill="#e8e8e8">whoami</tspan></text>
  <line x1="28" y1="68" x2="28" y2="104" stroke="#1f1f1f" stroke-width="1"/>
  <text x="36" y="83" fill="#e8e8e8" font-size="17" font-weight="500" letter-spacing="-0.3">Arnab Ranjan <tspan fill="#c8ff57">Sikdar</tspan></text>
  <text x="36" y="102" fill="#555" font-size="13">systems engineer · edge of hardware &amp; software</text>

  <!-- cat about.txt -->
  <text x="20" y="128" font-size="14.5"><tspan fill="#00f5d4">arnab</tspan><tspan fill="#555">@</tspan><tspan fill="#c8ff57">localhost</tspan><tspan fill="#555">:</tspan><tspan fill="#3d9eff">~</tspan><tspan fill="#c8ff57"> $ </tspan><tspan fill="#ccc">cat </tspan><tspan fill="#ff6b35">about.txt</tspan></text>
  <line x1="28" y1="134" x2="28" y2="192" stroke="#1f1f1f" stroke-width="1"/>
  <text x="36" y="149" fill="#999" font-size="14">I build things that have to work under pressure — schedulers, robots,</text>
  <text x="36" y="167" fill="#999" font-size="14">secure telemetry, and self-hosted infra.</text>
  <text x="36" y="185" fill="#999" font-size="14">Drawn to problems where silent failure isn't an option.</text>

  <!-- cat interests.txt -->
  <text x="20" y="213" font-size="14.5"><tspan fill="#00f5d4">arnab</tspan><tspan fill="#555">@</tspan><tspan fill="#c8ff57">localhost</tspan><tspan fill="#555">:</tspan><tspan fill="#3d9eff">~</tspan><tspan fill="#c8ff57"> $ </tspan><tspan fill="#ccc">cat </tspan><tspan fill="#ff6b35">interests.txt</tspan></text>
  <line x1="28" y1="219" x2="28" y2="310" stroke="#1f1f1f" stroke-width="1"/>
  <text x="36" y="235" font-size="14"><tspan fill="#333">→  </tspan><tspan fill="#ccc">real-time &amp; embedded systems</tspan></text>
  <text x="36" y="253" font-size="14"><tspan fill="#333">→  </tspan><tspan fill="#ccc">edge AI &amp; autonomous robotics</tspan></text>
  <text x="36" y="271" font-size="14"><tspan fill="#333">→  </tspan><tspan fill="#ccc">energy-efficient heterogeneous compute</tspan></text>
  <text x="36" y="289" font-size="14"><tspan fill="#333">→  </tspan><tspan fill="#ccc">secure telemetry &amp; network infrastructure</tspan></text>
  <text x="36" y="307" font-size="14"><tspan fill="#333">→  </tspan><tspan fill="#ccc">self-hosted, cloud-free setups</tspan></text>

  <!-- echo skills -->
  <text x="20" y="333" font-size="14.5"><tspan fill="#00f5d4">arnab</tspan><tspan fill="#555">@</tspan><tspan fill="#c8ff57">localhost</tspan><tspan fill="#555">:</tspan><tspan fill="#3d9eff">~</tspan><tspan fill="#c8ff57"> $ </tspan><tspan fill="#ccc">echo </tspan><tspan fill="#3d9eff">skills</tspan></text>

  <!-- skills row 1 -->
  <rect x="36"  y="343" width="66"  height="22" rx="2" fill="none" stroke="#00f5d440" stroke-width="1"/>
  <text x="69"  y="358" fill="#00f5d4" font-size="13" text-anchor="middle">Python</text>
  <rect x="110" y="343" width="64"  height="22" rx="2" fill="none" stroke="#bf5fff40" stroke-width="1"/>
  <text x="142" y="358" fill="#bf5fff" font-size="13" text-anchor="middle">C / C++</text>
  <rect x="182" y="343" width="92"  height="22" rx="2" fill="none" stroke="#ff6b3540" stroke-width="1"/>
  <text x="228" y="358" fill="#ff6b35" font-size="13" text-anchor="middle">Embedded C</text>
  <rect x="282" y="343" width="100" height="22" rx="2" fill="none" stroke="#3d9eff40" stroke-width="1"/>
  <text x="332" y="358" fill="#3d9eff" font-size="13" text-anchor="middle">Real-time OS</text>
  <rect x="390" y="343" width="70"  height="22" rx="2" fill="none" stroke="#ff4da640" stroke-width="1"/>
  <text x="425" y="358" fill="#ff4da6" font-size="13" text-anchor="middle">Edge AI</text>
  <rect x="468" y="343" width="98"  height="22" rx="2" fill="none" stroke="#c8ff5740" stroke-width="1"/>
  <text x="517" y="358" fill="#c8ff57" font-size="13" text-anchor="middle">ESP32 / CAM</text>

  <!-- skills row 2 -->
  <rect x="36"  y="372" width="90"  height="22" rx="2" fill="none" stroke="#00f5d440" stroke-width="1"/>
  <text x="81"  y="387" fill="#00f5d4" font-size="13" text-anchor="middle">ROCm / NPU</text>
  <rect x="134" y="372" width="120" height="22" rx="2" fill="none" stroke="#bf5fff40" stroke-width="1"/>
  <text x="194" y="387" fill="#bf5fff" font-size="13" text-anchor="middle">Linux / systemd</text>
  <rect x="262" y="372" width="66"  height="22" rx="2" fill="none" stroke="#ff6b3540" stroke-width="1"/>
  <text x="295" y="387" fill="#ff6b35" font-size="13" text-anchor="middle">NGINX</text>
  <rect x="336" y="372" width="84"  height="22" rx="2" fill="none" stroke="#3d9eff40" stroke-width="1"/>
  <text x="378" y="387" fill="#3d9eff" font-size="13" text-anchor="middle">Tailscale</text>
  <rect x="428" y="372" width="112" height="22" rx="2" fill="none" stroke="#ff4da640" stroke-width="1"/>
  <text x="484" y="387" fill="#ff4da6" font-size="13" text-anchor="middle">Cryptography</text>
  <rect x="548" y="372" width="96"  height="22" rx="2" fill="none" stroke="#c8ff5740" stroke-width="1"/>
  <text x="596" y="387" fill="#c8ff57" font-size="13" text-anchor="middle">PID control</text>

  <!-- ls social_links command -->
  <text x="20" y="418" font-size="14.5"><tspan fill="#00f5d4">arnab</tspan><tspan fill="#555">@</tspan><tspan fill="#c8ff57">localhost</tspan><tspan fill="#555">:</tspan><tspan fill="#3d9eff">~</tspan><tspan fill="#c8ff57"> $ </tspan><tspan fill="#ccc">ls </tspan><tspan fill="#ff4da6">social_links</tspan></text>

  <!-- left border line continuing down to bottom -->
  <line x1="28" y1="424" x2="28" y2="445" stroke="#1f1f1f" stroke-width="1"/>

  <!-- border: top + left + right only (no bottom, so it flows into README links) -->
  <!-- top border via titlebar already done; draw left/right/top outline without bottom -->
  <path d="M6,445 L0.5,445 L0.5,6 Q0.5,0.5 6,0.5 L674,0.5 Q679.5,0.5 679.5,6 L679.5,445" fill="none" stroke="#1f1f1f" stroke-width="1"/>
</svg>
